<svg xmlns="http://www.w3.org/2000/svg" width="32.57" height="23.884" viewBox="0 0 32.57 23.884"><defs><style>.a{fill:#a3c1f6;}.b{fill:#7fabf9;}.c{fill:#e7ecfb;}.d{fill:#c9d8fb;}.e{fill:#fff;}.f{fill:#428dff;}</style></defs><g transform="translate(0 -0.002)"><g transform="translate(0 0.002)"><path class="a" d="M31.713,6.428V7.514l-2.171-.005a9.108,9.108,0,0,1-7.008-3.539,2.163,2.163,0,0,0-3.36.005,9.1,9.1,0,0,1-7,3.534L10,7.514V6.428a1.089,1.089,0,0,1,1.086-1.086h.82A7.237,7.237,0,0,0,17.491,2.6a4.337,4.337,0,0,1,6.731,0,7.237,7.237,0,0,0,5.586,2.741h.82A1.089,1.089,0,0,1,31.713,6.428Z" transform="translate(-4.572 -0.458)"/><path class="b" d="M39.085,5.341h-.82A7.237,7.237,0,0,1,32.68,2.6,4.283,4.283,0,0,0,28.5,1.08,4.322,4.322,0,0,1,31.051,2.6a7.237,7.237,0,0,0,5.586,2.741h.82a1.089,1.089,0,0,1,1.086,1.086V7.508l1.628,0V6.427A1.089,1.089,0,0,0,39.085,5.341Z" transform="translate(-13.029 -0.457)"/><path class="c" d="M31.713,9.343v4.886A11.34,11.34,0,0,1,21.7,25.579a7.27,7.27,0,0,1-1.683,0A11.34,11.34,0,0,1,10,14.228V9.343l2.171-.005a9.1,9.1,0,0,0,7-3.534,2.163,2.163,0,0,1,3.36-.005,9.108,9.108,0,0,0,7.008,3.539Z" transform="translate(-4.571 -2.287)"/><path class="d" d="M38,9.337A9.108,9.108,0,0,1,30.992,5.8,2.127,2.127,0,0,0,28.5,5.169a2.127,2.127,0,0,1,.863.629,9.108,9.108,0,0,0,7.008,3.539l2.171.005v4.885A11.34,11.34,0,0,1,28.527,25.579H28.5a7.2,7.2,0,0,0,1.656,0A11.34,11.34,0,0,0,40.171,14.228V9.342Z" transform="translate(-13.029 -2.287)"/><path class="e" d="M21.8,23.765c-.054,0-.109-.007-.163-.012A11.34,11.34,0,0,1,11.628,12.4V6.43a1.089,1.089,0,0,1,1.086-1.086h.82A7.237,7.237,0,0,0,19.119,2.6a4.3,4.3,0,0,1,2.556-1.52A4.331,4.331,0,0,0,17.491,2.6a7.237,7.237,0,0,1-5.586,2.741h-.82A1.089,1.089,0,0,0,10,6.43V12.4A11.34,11.34,0,0,0,20.015,23.752,8.957,8.957,0,0,0,21.8,23.765Z" transform="translate(-4.571 -0.46)"/><path class="e" d="M20.39,40.606l.523-.952a10.307,10.307,0,0,0,3.908,1.229l-.113,1.08a11.4,11.4,0,0,1-4.318-1.357Z" transform="translate(-9.322 -18.129)"/><path class="f" d="M24.1,42.186A.543.543,0,1,1,24.1,41.1H24.1a.543.543,0,0,1,0,1.086Z" transform="translate(-10.769 -18.79)"/><path class="f" d="M16.381,24.061a24.168,24.168,0,0,0,14.439,0,.543.543,0,1,0-.322-1.037,23.074,23.074,0,0,1-13.791,0,.543.543,0,1,0-.322,1.037Z" transform="translate(-7.316 -10.516)"/><path class="f" d="M16.465,18.078a46.486,46.486,0,0,0,7.14.546,46.486,46.486,0,0,0,7.14-.546.543.543,0,1,0-.167-1.073,45.854,45.854,0,0,1-13.946,0,.543.543,0,0,0-.167,1.073Z" transform="translate(-7.32 -7.772)"/><path class="f" d="M16.282,31.019a16.611,16.611,0,0,0,14.582,0,.543.543,0,1,0-.468-.977,15.542,15.542,0,0,1-13.646,0,.543.543,0,1,0-.468.977Z" transform="translate(-7.288 -13.703)"/><path class="f" d="M30.4,5.429H27.585a1.628,1.628,0,0,0-1.529-1.086h-.82A6.7,6.7,0,0,1,20.072,1.8a4.881,4.881,0,0,0-7.574,0,6.7,6.7,0,0,1-5.165,2.54h-.82A1.628,1.628,0,0,0,4.985,5.429H2.171A2.171,2.171,0,0,0,0,7.6v2.714c0,2.862,2.571,5.5,5.685,5.91a11.414,11.414,0,0,0,.859,1.827A12.413,12.413,0,0,0,8.5,20.571a12.114,12.114,0,0,0,2.564,1.907.535.535,0,0,0,.745-.231.553.553,0,0,0-.223-.72A11.037,11.037,0,0,1,9.265,19.8,11.338,11.338,0,0,1,7.481,17.5a11.519,11.519,0,0,1-1.123-2.679,12.072,12.072,0,0,1-.387-2.881V7.6L7.6,7.6a9.617,9.617,0,0,0,7.423-3.736,1.623,1.623,0,0,1,2.521,0A9.675,9.675,0,0,0,24.958,7.6h.012l1.628,0v4.343a11.128,11.128,0,0,1-.606,3.609v.005a10.622,10.622,0,0,1-8.925,7.2,6.989,6.989,0,0,1-1.566,0,.543.543,0,1,0-.112,1.08,7.966,7.966,0,0,0,1.791,0,11.7,11.7,0,0,0,9.734-7.614c3.1-.428,5.655-3.053,5.655-5.907V7.6A2.171,2.171,0,0,0,30.4,5.429ZM4.886,11.943A13.248,13.248,0,0,0,5.3,15.05c-2.159-.516-4.211-2.36-4.211-4.736V7.6A1.086,1.086,0,0,1,2.171,6.515H4.886ZM24.97,6.509h-.011a8.6,8.6,0,0,1-6.574-3.338,2.708,2.708,0,0,0-4.205,0A8.588,8.588,0,0,1,7.612,6.511H7.6l-1.628,0V5.972a.543.543,0,0,1,.543-.543h.82a7.782,7.782,0,0,0,6.008-2.942,3.794,3.794,0,0,1,5.889,0,7.78,7.78,0,0,0,6.006,2.942h.82a.543.543,0,0,1,.543.543v.543Zm6.514,3.805c0,2.373-2.048,4.216-4.2,4.736a12.289,12.289,0,0,0,.4-3.108V6.515H30.4A1.086,1.086,0,0,1,31.484,7.6Z" transform="translate(0 -0.002)"/></g></g></svg>